<?xml version="1.0" standalone="no"?>
<!DOCTYPE svg PUBLIC "-//W3C//DTD SVG 20010904//EN"
 "http://www.w3.org/TR/2001/REC-SVG-20010904/DTD/svg10.dtd">
<svg version="1.0" xmlns="http://www.w3.org/2000/svg"
 width="700.000000pt" height="700.000000pt" viewBox="0 0 700.000000 700.000000"
 preserveAspectRatio="xMidYMid meet">
<metadata>
Created by potrace 1.14, written by Peter Selinger 2001-2017
</metadata>
<g transform="translate(0.000000,700.000000) scale(0.100000,-0.100000)"
fill="#000000" stroke="none">
<path d="M4075 6009 c-88 -66 -168 -126 -178 -134 -16 -11 0 -36 195 -300 117
-157 263 -353 323 -435 641 -866 801 -1079 807 -1080 4 0 87 59 183 131 114
84 173 134 168 142 -10 17 -256 351 -263 357 -3 3 -27 34 -53 70 -67 93 -67
92 -236 319 -84 113 -266 359 -404 546 -139 187 -256 345 -262 351 -5 6 -32
43 -60 82 -27 39 -52 71 -55 71 -3 0 -77 -54 -165 -120z"/>
<path d="M3318 5301 c-48 -58 -112 -136 -142 -172 l-55 -67 275 -227 c151
-126 289 -241 307 -256 18 -15 226 -188 462 -384 237 -196 450 -374 475 -395
25 -21 83 -69 129 -108 l84 -69 130 156 c71 86 136 163 144 172 12 14 3 25
-83 95 -53 43 -102 84 -108 89 -6 6 -108 91 -226 189 -118 98 -226 188 -240
199 -14 12 -117 98 -230 192 -113 93 -216 179 -230 191 -14 12 -149 124 -300
249 -151 125 -282 233 -290 240 -13 11 -28 -4 -102 -94z"/>
<path d="M2709 4403 c-16 -37 -36 -81 -44 -97 -56 -123 -105 -238 -105 -246 0
-6 4 -10 9 -10 5 0 51 -20 102 -44 144 -67 248 -116 314 -146 33 -15 164 -76
290 -135 127 -59 257 -120 290 -135 259 -120 387 -180 494 -231 68 -32 125
-59 127 -59 3 0 324 -149 378 -176 16 -8 30 -14 31 -14 1 0 28 57 60 128 32
70 73 160 92 200 18 39 33 74 33 77 0 5 -28 19 -215 105 -33 15 -177 83 -320
150 -263 124 -349 164 -485 227 -41 19 -126 59 -189 89 -62 30 -114 54 -116
54 -2 0 -65 30 -141 66 -77 36 -170 81 -209 99 -298 139 -355 165 -360 165 -3
0 -19 -30 -36 -67z"/>
<path d="M2336 3363 c-25 -127 -25 -128 -50 -245 l-23 -107 46 -10 c25 -6 57
-13 71 -15 14 -2 78 -16 142 -30 64 -14 127 -27 140 -30 48 -9 418 -86 533
-111 66 -14 129 -27 140 -29 11 -2 76 -16 145 -30 69 -15 134 -28 145 -30 11
-3 65 -14 121 -25 55 -12 109 -23 120 -25 10 -3 87 -19 169 -36 83 -18 161
-34 175 -37 14 -2 76 -15 139 -29 63 -13 116 -23 117 -21 3 3 26 105 49 222 3
11 14 63 25 115 24 113 23 107 8 107 -7 0 -69 13 -138 27 -69 15 -134 29 -145
32 -49 10 -122 25 -145 29 -14 3 -101 21 -195 41 -93 20 -177 37 -185 39 -8 2
-96 20 -195 40 -99 20 -188 39 -198 41 -10 2 -26 5 -35 8 -9 3 -30 8 -47 10
-16 3 -84 17 -150 31 -66 14 -140 30 -165 35 -25 5 -56 12 -70 15 -14 3 -38 8
-55 11 -16 3 -50 10 -75 15 -25 6 -54 12 -65 15 -11 2 -42 8 -70 14 -27 6 -59
12 -70 14 -11 2 -55 11 -97 20 -42 9 -81 16 -86 16 -4 0 -16 -39 -26 -87z"/>
<path d="M1320 2850 c-4 -238 -1 -1762 3 -1766 6 -7 4038 -7 4044 0 7 7 6
1786 0 1793 -4 4 -251 6 -408 4 l-35 -1 0 -675 1 -675 -1577 0 -1578 0 -1 23
c0 12 0 316 0 675 l0 652 -22 0 c-12 1 -113 2 -225 3 l-202 2 0 -35z"/>
<path d="M2235 2432 c-19 -3 -20 -10 -20 -222 0 -139 4 -221 10 -222 6 0 513
-2 1128 -3 l1117 -1 -2 224 -3 224 -1105 2 c-608 0 -1114 0 -1125 -2z"/>
</g>
</svg>
